<svg width="81" height="32" viewBox="0 0 81 32" fill="none" xmlns="http://www.w3.org/2000/svg">
<path fill-rule="evenodd" clip-rule="evenodd" d="M2.0011 2.00098H29.9989V29.9988H2.0011V2.00098ZM22.3171 7.45589C20.5395 5.37356 18.4337 4.3324 15.9997 4.3324C14.3935 4.3324 12.8431 4.8478 11.3485 5.87861C9.00511 7.7213 7.83344 10.0118 7.83344 12.7501C7.83331 14.5513 8.41406 16.2952 9.57569 17.9819C11.4644 20.1057 13.5098 21.1677 15.7118 21.1677H16.1662C18.1865 21.1677 19.8178 20.5742 21.06 19.3872V20.902L20.9691 21.5267C19.8682 23.5672 18.2117 24.5875 15.9997 24.5875C14.1513 24.5878 12.6111 23.7912 11.379 22.1979C10.9749 21.0735 10.4143 20.5113 9.69718 20.5113H9.48511C8.53561 20.7298 8.06086 21.2192 8.06086 21.9793V22.1511C8.06086 22.4321 8.25278 22.9058 8.63663 23.5722C10.5759 26.3 13.0303 27.6639 15.9998 27.6639C17.7371 27.6638 19.3986 27.1276 20.9844 26.0554C23.0651 24.411 24.1054 22.8549 24.1054 21.3869V14.3741L24.1655 12.4063C24.1655 10.8448 23.5494 9.19465 22.3171 7.45589ZM10.9393 12.8587V12.5782C10.9392 12.0684 11.0402 11.5061 11.2423 10.8915C12.2925 8.65307 13.843 7.53383 15.8937 7.53383H16.1058C16.4794 7.5341 17.0147 7.61738 17.7118 7.78369C19.9439 8.85631 21.06 10.47 21.06 12.6249V12.9836C21.0598 13.3585 20.979 13.8843 20.8176 14.5608C19.7671 16.8306 18.2166 17.9654 16.1662 17.9654H15.8331C15.3584 17.9656 14.8332 17.8771 14.2574 17.7C12.0453 16.638 10.9393 15.0243 10.9393 12.8587Z" fill="white"/>
<path d="M39.6527 8.68137H41.8942V19.2485C41.8942 20.2043 41.705 21.0218 41.3266 21.701C40.953 22.3803 40.4266 22.8994 39.7473 23.2584C39.0681 23.6126 38.2724 23.7897 37.3603 23.7897C36.5209 23.7897 35.7665 23.6369 35.0969 23.3312C34.4323 23.0256 33.9058 22.5816 33.5177 21.9994C33.1344 21.4124 32.9428 20.6991 32.9428 19.8598H35.177C35.177 20.2722 35.2716 20.6288 35.4608 20.9296C35.6549 21.2304 35.9193 21.4657 36.2541 21.6355C36.5937 21.8005 36.9819 21.883 37.4185 21.883C37.894 21.883 38.2967 21.7835 38.6266 21.5846C38.9614 21.3808 39.2161 21.0824 39.3907 20.6894C39.5654 20.2965 39.6527 19.8161 39.6527 19.2485V8.68137ZM49.3119 23.8115C48.264 23.8115 47.3494 23.5714 46.5683 23.0911C45.7871 22.6107 45.1807 21.9388 44.7489 21.0752C44.3171 20.2115 44.1012 19.2024 44.1012 18.0477C44.1012 16.8881 44.3171 15.8741 44.7489 15.0056C45.1807 14.1372 45.7871 13.4628 46.5683 12.9824C47.3494 12.5021 48.264 12.262 49.3119 12.262C50.3599 12.262 51.2745 12.5021 52.0556 12.9824C52.8367 13.4628 53.4432 14.1372 53.875 15.0056C54.3068 15.8741 54.5227 16.8881 54.5227 18.0477C54.5227 19.2024 54.3068 20.2115 53.875 21.0752C53.4432 21.9388 52.8367 22.6107 52.0556 23.0911C51.2745 23.5714 50.3599 23.8115 49.3119 23.8115ZM49.3192 21.9849C49.9985 21.9849 50.5613 21.8053 51.0076 21.4463C51.454 21.0873 51.7839 20.6094 51.9974 20.0126C52.2157 19.4159 52.3249 18.7585 52.3249 18.0404C52.3249 17.3272 52.2157 16.6722 51.9974 16.0754C51.7839 15.4738 51.454 14.9911 51.0076 14.6272C50.5613 14.2633 49.9985 14.0814 49.3192 14.0814C48.6351 14.0814 48.0675 14.2633 47.6162 14.6272C47.1699 14.9911 46.8375 15.4738 46.6192 16.0754C46.4057 16.6722 46.299 17.3272 46.299 18.0404C46.299 18.7585 46.4057 19.4159 46.6192 20.0126C46.8375 20.6094 47.1699 21.0873 47.6162 21.4463C48.0675 21.8053 48.6351 21.9849 49.3192 21.9849ZM56.7369 23.5859V8.68137H58.9129V14.2196H59.0439C59.17 13.9868 59.352 13.7175 59.5897 13.4118C59.8275 13.1062 60.1574 12.8393 60.5795 12.6113C61.0016 12.3784 61.5595 12.262 62.2533 12.262C63.1558 12.262 63.9611 12.49 64.6695 12.9461C65.3779 13.4021 65.9334 14.0595 66.3361 14.9183C66.7436 15.7771 66.9474 16.8105 66.9474 18.0186C66.9474 19.2266 66.746 20.2625 66.3433 21.1261C65.9407 21.9849 65.3876 22.6471 64.6841 23.1129C63.9805 23.5738 63.1776 23.8043 62.2752 23.8043C61.5959 23.8043 61.0404 23.6903 60.6086 23.4622C60.1816 23.2342 59.8469 22.9673 59.6043 22.6617C59.3617 22.356 59.1749 22.0843 59.0439 21.8466H58.862V23.5859H56.7369ZM58.8692 17.9967C58.8692 18.7827 58.9832 19.4717 59.2113 20.0636C59.4393 20.6555 59.7692 21.1188 60.201 21.4536C60.6328 21.7835 61.1617 21.9485 61.7876 21.9485C62.4377 21.9485 62.9811 21.7762 63.4177 21.4318C63.8544 21.0824 64.1843 20.6094 64.4075 20.0126C64.6355 19.4159 64.7495 18.7439 64.7495 17.9967C64.7495 17.2593 64.638 16.597 64.4148 16.0099C64.1964 15.4229 63.8665 14.9595 63.425 14.6199C62.9884 14.2803 62.4425 14.1105 61.7876 14.1105C61.1568 14.1105 60.6231 14.273 60.1865 14.5981C59.7547 14.9231 59.4272 15.3768 59.204 15.959C58.9808 16.5412 58.8692 17.2204 58.8692 17.9967ZM77.378 15.1366L75.4058 15.4859C75.3233 15.2337 75.1923 14.9935 75.0128 14.7655C74.8381 14.5374 74.6004 14.3506 74.2996 14.2051C73.9988 14.0595 73.6228 13.9868 73.1715 13.9868C72.5554 13.9868 72.0411 14.125 71.6287 14.4016C71.2163 14.6733 71.0101 15.025 71.0101 15.4568C71.0101 15.8304 71.1484 16.1312 71.4249 16.3593C71.7015 16.5873 72.1478 16.7741 72.764 16.9196L74.5397 17.3272C75.5683 17.5649 76.3349 17.9312 76.8395 18.4261C77.344 18.921 77.5963 19.5638 77.5963 20.3547C77.5963 21.0242 77.4023 21.621 77.0141 22.145C76.6308 22.6641 76.0947 23.0717 75.4058 23.3676C74.7217 23.6636 73.9284 23.8115 73.026 23.8115C71.7742 23.8115 70.753 23.5447 69.9621 23.011C69.1713 22.4725 68.6861 21.7083 68.5066 20.7186L70.6098 20.3983C70.7408 20.9466 71.0101 21.3614 71.4176 21.6428C71.8252 21.9194 72.3565 22.0576 73.0114 22.0576C73.7246 22.0576 74.2947 21.9097 74.7217 21.6137C75.1486 21.3129 75.3621 20.9466 75.3621 20.5148C75.3621 20.1655 75.2311 19.8719 74.9691 19.6342C74.712 19.3965 74.3166 19.2169 73.7829 19.0956L71.8907 18.6808C70.8476 18.4431 70.0761 18.0647 69.5764 17.5455C69.0815 17.0264 68.8341 16.369 68.8341 15.5733C68.8341 14.9134 69.0185 14.3361 69.3872 13.8412C69.7559 13.3463 70.2654 12.9606 70.9155 12.6841C71.5656 12.4027 72.3104 12.262 73.1497 12.262C74.3578 12.262 75.3087 12.524 76.0025 13.0479C76.6963 13.5671 77.1548 14.2633 77.378 15.1366Z" fill="white"/>
</svg>
