<?xml version="1.0" standalone="no"?>
<!DOCTYPE svg PUBLIC "-//W3C//DTD SVG 20010904//EN"
 "http://www.w3.org/TR/2001/REC-SVG-20010904/DTD/svg10.dtd">
<svg version="1.0" xmlns="http://www.w3.org/2000/svg"
 width="400.000000pt" height="400.000000pt" viewBox="0 0 400.000000 400.000000"
 preserveAspectRatio="xMidYMid meet">

<g transform="translate(0.000000,400.000000) scale(0.100000,-0.100000)"
fill="#000000" stroke="none">
<path d="M0 2000 l0 -2000 2000 0 2000 0 0 2000 0 2000 -2000 0 -2000 0 0
-2000z m2132 969 c135 -27 255 -94 363 -203 91 -92 136 -162 178 -279 l29 -82
-1 -455 c-1 -286 -6 -467 -12 -488 -31 -97 -157 -243 -276 -320 -207 -133
-478 -159 -703 -69 -137 56 -316 215 -373 331 -39 79 -37 129 8 171 81 77 192
47 238 -63 23 -55 106 -134 189 -181 90 -50 249 -65 363 -35 107 27 204 99
266 196 29 45 33 61 37 136 l5 86 -24 -17 c-113 -81 -192 -112 -336 -129 -343
-40 -663 175 -769 517 -26 83 -26 295 0 379 71 237 276 432 518 496 83 21 219
26 300 9z"/>
<path d="M1870 2695 c-111 -32 -213 -123 -273 -245 -30 -62 -32 -71 -32 -180
0 -104 3 -120 27 -173 40 -86 83 -134 166 -188 96 -63 132 -72 267 -67 99 4
116 7 170 35 145 75 244 237 245 398 0 61 -22 150 -51 208 -32 61 -124 147
-202 186 -60 31 -77 34 -165 37 -66 3 -114 -1 -152 -11z"/>
</g>
</svg>
