<?xml version="1.0" standalone="no"?>
<!DOCTYPE svg PUBLIC "-//W3C//DTD SVG 20010904//EN"
 "http://www.w3.org/TR/2001/REC-SVG-20010904/DTD/svg10.dtd">
<svg version="1.0" xmlns="http://www.w3.org/2000/svg"
 width="401.000000pt" height="135.000000pt" viewBox="0 0 401.000000 135.000000"
 preserveAspectRatio="xMidYMid meet">

<g transform="translate(0.000000,135.000000) scale(0.100000,-0.100000)"
fill="#000000" stroke="none">
<path d="M992 1108 c23 -83 46 -114 97 -128 51 -14 50 -14 39 28 -6 24 -32 60
-76 105 -37 37 -70 67 -73 67 -4 0 2 -33 13 -72z"/>
<path d="M615 1088 c-43 -16 -88 -49 -78 -58 4 -3 28 -12 53 -19 25 -7 79 -23
120 -35 41 -13 104 -31 140 -41 l65 -18 0 -89 c0 -48 1 -88 2 -88 1 0 39 14
84 32 68 26 79 33 61 39 -11 4 -28 20 -38 34 -9 14 -29 33 -43 41 l-26 15 27
-5 c14 -3 34 -9 45 -12 11 -4 4 8 -19 32 -25 26 -41 56 -49 89 -19 80 -21 83
-33 37 l-11 -42 -37 25 c-87 59 -201 87 -263 63z"/>
<path d="M316 882 c-3 -5 10 -24 29 -42 l35 -34 0 42 c0 40 -2 42 -29 42 -17
0 -32 -4 -35 -8z"/>
<path d="M1015 685 c-27 -7 -72 -23 -100 -34 l-50 -20 47 6 c43 5 47 4 61 -24
9 -16 18 -45 22 -65 6 -32 4 -38 -23 -57 -39 -27 -43 -27 -78 10 -16 17 -44
39 -61 51 -18 11 -33 23 -33 28 0 4 14 17 31 27 l30 20 -57 11 c-88 18 -141
15 -164 -8 -26 -26 -25 -29 11 -68 32 -35 35 -36 124 -20 15 2 20 -4 25 -32 3
-19 14 -47 23 -61 l17 -26 -39 -18 c-37 -16 -43 -16 -80 -1 l-40 16 5 -29 c6
-26 3 -29 -39 -40 -25 -6 -64 -11 -86 -11 -39 0 -41 1 -41 32 0 25 10 42 49
79 l49 47 -33 32 -34 33 -77 -48 c-43 -27 -113 -75 -156 -108 -59 -44 -83 -57
-99 -52 -18 6 -20 4 -11 -11 7 -13 3 -28 -19 -63 -60 -95 -28 -123 139 -121
176 1 252 -8 252 -31 0 -15 52 -10 96 10 47 21 114 95 114 126 0 38 24 57 81
66 39 6 59 15 74 33 11 14 38 32 60 39 35 12 43 12 64 -2 24 -15 24 -15 19 7
-7 27 25 57 135 125 42 27 77 51 77 54 0 2 -16 -6 -36 -18 -34 -21 -41 -22
-95 -11 -44 10 -63 10 -83 0 -35 -15 -48 -2 -50 51 0 29 5 44 19 55 34 25 73
29 101 11 24 -16 26 -16 22 2 -3 14 -14 18 -58 20 -30 1 -77 -4 -105 -12z
m-300 -425 c4 -6 -7 -10 -27 -9 -27 0 -30 2 -13 9 27 12 33 12 40 0z"/>
<path d="M1501 581 c-40 -40 -25 -75 44 -106 59 -26 69 -37 60 -65 -13 -40
-80 -37 -91 6 -10 39 -34 30 -34 -13 0 -27 3 -34 11 -26 8 8 19 7 39 -5 36
-21 78 -8 99 30 14 25 14 29 -5 54 -11 15 -39 34 -62 42 -44 14 -62 43 -42 67
25 30 90 8 90 -31 0 -8 5 -14 10 -14 6 0 10 15 10 33 0 24 -5 33 -17 35 -10 1
-34 4 -55 8 -29 5 -40 2 -57 -15z"/>
<path d="M1683 589 c14 -8 17 -25 17 -109 0 -69 -4 -100 -12 -103 -7 -3 3 -6
22 -6 26 -1 31 2 22 11 -7 7 -12 29 -12 50 l0 38 61 0 61 0 -4 -50 c-3 -50 -3
-50 27 -49 17 0 24 3 18 6 -9 3 -13 34 -13 103 0 84 3 101 18 109 13 8 8 10
-27 11 -35 0 -42 -3 -33 -12 7 -7 12 -32 12 -55 l0 -44 -57 3 c-58 3 -58 3
-61 36 -2 22 3 41 14 53 17 18 16 19 -27 19 -35 -1 -40 -3 -26 -11z"/>
<path d="M1943 589 c14 -8 17 -25 17 -109 0 -69 -4 -100 -12 -103 -7 -3 3 -6
22 -6 26 -1 31 2 22 11 -8 8 -12 45 -12 101 0 74 3 92 18 103 15 12 12 13 -28
13 -35 0 -41 -2 -27 -10z"/>
<path d="M2053 590 c14 -9 17 -27 17 -110 0 -73 -3 -100 -12 -101 -7 -1 4 -5
25 -9 52 -10 115 3 141 29 17 17 21 34 21 81 0 51 -4 63 -27 86 -23 24 -36 27
-105 31 -59 3 -74 1 -60 -7z m126 -25 c34 -17 41 -33 41 -88 -1 -51 -17 -75
-61 -87 -60 -17 -59 -18 -59 90 l0 100 25 0 c15 0 39 -7 54 -15z"/>
<path d="M2299 586 c8 -10 11 -48 9 -115 l-3 -101 30 1 c17 0 24 3 18 6 -9 3
-13 34 -13 103 0 84 3 101 18 109 13 8 8 10 -27 11 -37 0 -42 -2 -32 -14z"/>
<path d="M2448 584 c-36 -19 -48 -43 -48 -99 0 -95 39 -125 164 -125 61 1 68
2 49 13 -17 9 -20 16 -11 30 16 30 13 123 -6 152 -29 45 -96 58 -148 29z m112
-29 c19 -20 24 -37 24 -77 0 -43 -4 -54 -28 -74 -47 -41 -97 -27 -122 33 -41
98 58 190 126 118z"/>
<path d="M2673 589 c14 -8 17 -25 17 -102 0 -59 -4 -97 -12 -105 -9 -9 -4 -12
22 -12 26 0 31 3 22 12 -8 8 -12 45 -12 101 0 74 3 92 18 103 15 12 12 13 -28
13 -35 0 -41 -2 -27 -10z"/>
<path d="M2879 586 c8 -10 11 -48 9 -115 l-3 -101 30 1 c17 0 24 3 18 6 -9 3
-13 34 -13 103 0 84 3 101 18 109 13 8 8 10 -27 11 -37 0 -42 -2 -32 -14z"/>
<path d="M2993 589 c14 -8 17 -25 17 -102 0 -59 -4 -97 -12 -105 -9 -9 -4 -12
22 -12 26 0 31 3 22 12 -7 7 -12 29 -12 50 l0 38 61 0 61 0 -4 -50 c-3 -50 -3
-50 27 -49 17 0 24 3 18 6 -18 6 -18 194 -1 211 9 9 3 12 -27 12 -30 0 -36 -3
-27 -12 7 -7 12 -32 12 -55 l0 -44 -57 3 c-58 3 -58 3 -61 36 -2 22 3 41 14
53 17 18 16 19 -27 19 -35 -1 -40 -3 -26 -11z"/>
<path d="M3261 581 c-40 -40 -25 -75 44 -106 59 -26 69 -37 60 -65 -13 -40
-79 -37 -95 6 -14 36 -30 29 -30 -12 0 -28 3 -34 13 -26 8 7 18 6 31 -4 44
-31 109 -1 109 50 0 35 -21 56 -75 76 -45 16 -59 40 -38 65 21 26 59 18 78
-15 22 -39 32 -38 32 3 0 24 -5 33 -17 35 -10 1 -34 4 -55 8 -29 5 -40 2 -57
-15z"/>
<path d="M3520 578 c-5 -13 -27 -65 -49 -115 l-39 -93 32 0 c20 0 26 3 18 8
-9 7 -10 15 -3 35 9 24 16 27 60 27 41 0 52 -4 61 -21 7 -11 9 -27 6 -35 -4
-10 2 -14 18 -14 24 0 24 0 -22 115 -46 116 -64 136 -82 93z m44 -65 c9 -26
16 -48 16 -50 0 -2 -18 -3 -40 -3 -22 0 -40 1 -40 3 0 15 34 97 40 97 4 0 15
-21 24 -47z"/>
<path d="M3703 589 c14 -8 17 -25 17 -109 0 -69 -4 -100 -12 -103 -7 -3 3 -6
22 -6 22 0 30 2 22 7 -9 6 -12 34 -10 101 l3 92 53 -100 c40 -75 59 -101 73
-101 18 0 19 8 19 105 0 88 3 106 18 114 13 8 8 10 -27 11 -39 0 -42 -2 -27
-13 14 -10 16 -26 14 -102 l-3 -90 -53 103 -52 102 -38 0 c-30 -1 -34 -3 -19
-11z"/>
</g>
</svg>
